<svg width="191" height="222" viewBox="0 0 191 222" fill="none" xmlns="http://www.w3.org/2000/svg">
<path fill-rule="evenodd" clip-rule="evenodd" d="M10.6752 0H57.5563C61.4749 0 63.4343 0 64.7954 1.14374C66.1566 2.28748 66.4942 4.21752 67.1694 8.07759L85.8062 114.621C88.4635 129.813 89.7922 137.409 93.5827 137.69C97.3733 137.971 99.8085 130.655 104.679 116.022L104.679 116.022L126.907 49.241L126.907 49.2409C127.918 46.2012 128.424 44.6813 129.613 43.7702C130.803 42.8592 132.402 42.7662 135.6 42.5804L166.446 40.7879C179.577 40.0248 186.142 39.6433 189.288 43.7852C192.433 47.927 190.304 54.1492 186.045 66.5934L178.09 89.8372C166.496 90.1752 156.549 98.7183 154.987 110.405C154.509 113.982 154.866 117.48 155.91 120.711C143.931 122.37 133.9 132.461 132.114 145.825C130.724 156.223 134.671 166.019 141.73 172.092C132.222 174.241 124.628 181.986 123.28 192.072C122.424 198.476 124.245 204.629 127.892 209.439C123.702 210.968 118.211 212.117 110.453 213.741L110.452 213.741L94.0659 217.17C71.5627 221.88 60.3111 224.235 51.8545 218.709C43.3979 213.184 41.0367 201.933 36.3143 179.433L1.12413 11.7637C-0.0170351 6.32643 -0.587619 3.6078 0.876981 1.8039C2.34158 0 5.11945 0 10.6752 0Z" fill="#FF5021"/>
<path d="M149.186 191.257C147.011 188.362 145.027 186.382 141.822 184.178C140.613 183.347 138.97 183.886 138.673 185.323C138.139 187.915 138.114 191.3 140.151 193.609C142.305 196.048 145.827 195.472 148.426 194.413C149.685 193.899 150.002 192.344 149.186 191.257Z" fill="#FF5021"/>
<path d="M148.523 129.237C149.99 121.931 157.268 125.757 161.141 129.893C162.046 130.861 161.739 132.364 160.521 132.887C155.173 135.188 147.327 135.19 148.523 129.237Z" fill="#FF5021"/>
<ellipse cx="166.629" cy="113.809" rx="5.39098" ry="3.26177" transform="rotate(-49.9997 166.629 113.809)" fill="#FF5021"/>
</svg>
