<svg width="388" height="165" viewBox="0 0 388 165" fill="none" xmlns="http://www.w3.org/2000/svg">
<g filter="url(#filter0_d_847_20721)">
<path fill-rule="evenodd" clip-rule="evenodd" d="M361.242 150.015C362.311 142.222 368.951 136.31 376.919 136.016C371.573 132.301 368.201 125.701 368.607 118.377C368.967 111.874 372.224 106.268 376.956 102.921C372.004 99.8864 368.839 94.3603 369.179 88.2308C369.431 83.6883 371.559 79.6878 374.783 76.9157C373.767 61.6589 373.524 47.8378 373.988 39.4655C374.183 35.9469 374.331 32.9691 374.46 30.3766C374.845 22.6566 375.059 18.3541 375.829 13.3652C376.91 6.34972 370.429 0.350041 363.728 2.69333C359.17 4.28747 356.022 8.47247 355.755 13.2942L352.658 69.1822C352.574 70.7019 352.532 71.4617 352.2 72.0623C351.985 72.4514 351.686 72.7879 351.325 73.0472C350.767 73.4475 350.018 73.5785 348.519 73.8405L348.518 73.8406L348.518 73.8406C339.235 75.4628 334.594 76.274 331.108 78.7354C328.849 80.3309 326.965 82.4006 325.588 84.7997C323.465 88.5008 323.092 93.1979 322.348 102.592L321.841 108.993C320.187 129.859 319.36 140.292 325.649 146.502C331.738 152.514 341.7 151.807 361.242 150.015Z" fill="#FF5021"/>
<path d="M337.896 127.351L338.575 109.154C338.67 106.593 338.718 105.313 339.105 104.264C339.792 102.405 341.235 100.924 343.076 100.189C344.114 99.775 345.393 99.694 347.95 99.5322C351.191 99.327 352.812 99.2244 354.071 99.6277C356.309 100.345 358.038 102.138 358.674 104.401C359.032 105.674 358.87 107.289 358.548 110.521L356.74 128.641L356.74 128.641C356.502 131.025 356.383 132.217 356.007 133.147C355.06 135.491 352.923 137.142 350.416 137.467C349.421 137.595 348.237 137.409 345.87 137.037C343.85 136.72 342.84 136.561 342.02 136.204C339.961 135.31 338.456 133.482 337.973 131.289C337.781 130.417 337.819 129.395 337.896 127.351Z" fill="#FFF9EA"/>
<path d="M269.29 109.532L269.861 109.509C273.943 109.343 275.984 109.26 277.634 108.352C278.341 107.963 278.985 107.47 279.544 106.888C280.849 105.531 281.46 103.582 282.681 99.6831L282.681 99.6831C283.103 98.3365 283.314 97.6632 283.755 97.1752C283.945 96.9658 284.163 96.7841 284.403 96.6357C284.963 96.2898 285.663 96.2042 287.064 96.033L287.491 95.9808C291.526 95.4875 293.544 95.2408 294.59 96.431C294.621 96.4664 294.651 96.5025 294.68 96.5394C295.669 97.7775 295.072 99.7206 293.878 103.607L292.265 108.856C291.701 110.695 291.418 111.614 290.722 112.187C290.026 112.76 289.07 112.86 287.158 113.062L277.85 114.041L277.85 114.041C270.894 114.773 267.416 115.139 264.873 116.921C263.492 117.889 262.33 119.137 261.464 120.584C259.869 123.249 259.754 126.744 259.523 133.734C259.241 142.269 259.1 146.537 260.988 149.61C262.007 151.269 263.415 152.655 265.09 153.649C268.192 155.489 272.473 155.281 281.035 154.865L281.035 154.865C293.576 154.256 299.846 153.952 304.53 150.984C306.962 149.443 309.051 147.418 310.667 145.036C313.78 140.447 314.279 134.213 315.276 121.743L315.276 121.743L316.429 107.326C317.411 95.0449 317.902 88.9044 315.044 84.5877C314.043 83.0761 312.776 81.7585 311.305 80.6988C307.104 77.6725 300.949 77.9215 288.639 78.4194C281.224 78.7193 277.517 78.8692 274.544 80.5737C273.485 81.1808 272.51 81.9238 271.643 82.7838C269.211 85.1982 268.083 88.733 265.827 95.8028L263.761 102.278C262.753 105.437 262.249 107.016 262.889 108.154C263.026 108.397 263.195 108.619 263.392 108.815C264.32 109.734 265.977 109.667 269.29 109.532Z" fill="#FF5021"/>
<path d="M281.611 127.81L290.639 126.243C291.21 126.144 291.495 126.094 291.723 126.07C295.832 125.63 299.426 128.828 299.467 132.96C299.469 133.189 299.453 133.478 299.421 134.056C299.398 134.478 299.386 134.688 299.366 134.871C299.016 138.103 296.487 140.669 293.26 141.065C293.077 141.088 292.867 141.102 292.446 141.131L292.446 141.131L283.304 141.768L283.231 141.773C279.26 142.032 275.872 138.932 275.778 134.953L275.777 134.88L275.776 134.818C275.724 131.385 278.17 128.422 281.55 127.821L281.611 127.81Z" fill="#FFF9EA"/>
<path d="M146.905 132.677L146.581 108.568C146.42 96.5235 146.339 90.5011 150.102 86.8923C153.866 83.2836 159.879 83.6168 171.907 84.2832L181.537 84.8168C193.756 85.4938 199.865 85.8324 203.211 89.9113C206.557 93.9903 205.695 100.048 203.97 112.163L203.97 112.163L200.597 135.858C199.171 145.876 198.457 150.884 194.991 153.831C191.524 156.778 186.466 156.676 176.349 156.47L170.415 156.35C159.448 156.127 153.964 156.015 150.545 152.572C147.125 149.129 147.052 143.645 146.905 132.677Z" fill="#FF5021"/>
<path d="M164.46 130.564L163.78 113.162C163.588 108.248 163.492 105.791 164.521 104.028C165.199 102.867 166.196 101.926 167.394 101.317C169.214 100.392 171.662 100.631 176.556 101.108C180.989 101.541 183.206 101.757 184.746 102.875C185.762 103.614 186.562 104.612 187.059 105.765C187.814 107.513 187.539 109.723 186.99 114.143L184.845 131.425C184.506 134.15 184.337 135.512 183.802 136.585C182.969 138.255 181.502 139.524 179.73 140.108C178.591 140.483 177.218 140.455 174.474 140.397C171.62 140.338 170.193 140.308 169.042 139.861C167.25 139.166 165.822 137.764 165.094 135.985C164.627 134.842 164.571 133.416 164.46 130.564Z" fill="#FFF9EA"/>
<path d="M82.7304 120.407L89.3947 99.3059C91.951 91.2119 93.2291 87.165 96.3995 84.8437C99.57 82.5224 103.814 82.5262 112.302 82.5338L117.923 82.5388C129.211 82.5489 134.854 82.554 138.364 86.0613C141.874 89.5686 141.883 95.2125 141.901 106.5L141.935 127.517C141.953 138.78 141.962 144.412 138.473 147.929C134.985 151.445 129.353 151.482 118.09 151.555L105.772 151.635C90.7096 151.732 83.1786 151.781 79.5523 146.866C75.9261 141.952 78.1942 134.77 82.7304 120.407Z" fill="#FF5021"/>
<path d="M125.862 123.06L126.819 112.304C127.197 108.048 127.386 105.92 126.669 104.28C126.047 102.857 124.97 101.681 123.607 100.938C122.035 100.081 119.898 100.084 115.625 100.09C112.556 100.094 111.021 100.097 109.736 100.631C108.617 101.096 107.637 101.844 106.893 102.802C106.04 103.9 105.634 105.38 104.821 108.341L101.963 118.753C100.326 124.718 99.5077 127.7 100.504 129.972C100.951 130.991 101.635 131.889 102.498 132.592C104.423 134.157 107.516 134.161 113.701 134.171C118.189 134.178 120.433 134.181 122.119 133.151C122.885 132.683 123.553 132.072 124.088 131.352C125.266 129.766 125.465 127.531 125.862 123.06Z" fill="#FFF9EA"/>
<path d="M31.156 55.5691L13.095 54.5684C9.68451 54.3794 7.97927 54.2849 7.01884 55.3425C6.05841 56.4 6.31621 58.0883 6.83179 61.4649L17.5714 131.799C19.2756 142.96 20.1277 148.54 23.5766 152.011C24.6674 153.109 25.9216 154.032 27.2947 154.746C31.6356 157.004 37.2166 156.155 48.3784 154.457L48.3785 154.457C54.982 153.453 58.2837 152.95 60.952 151.253C61.8116 150.706 62.6132 150.073 63.3445 149.364C65.6146 147.162 66.8692 144.067 69.3783 137.877L87.3962 93.4256C90.4339 85.9314 91.9527 82.1842 90.1626 79.5347C88.3724 76.8851 84.3292 76.896 76.2427 76.9178L67.8957 76.9403C65.926 76.9456 64.9411 76.9483 64.1802 77.4671C63.4192 77.9859 63.057 78.9017 62.3325 80.7334L53.2218 103.766L53.2218 103.766C49.7342 112.583 47.9904 116.992 45.6731 116.69C43.3558 116.389 42.7985 111.681 41.684 102.265L36.7825 60.8547C36.4993 58.4621 36.3577 57.2659 35.561 56.5175C34.7644 55.7691 33.5616 55.7024 31.156 55.5691Z" fill="#FF5021"/>
<path d="M205.706 145.517L217.079 67.1811C217.378 65.1209 217.528 64.0908 218.198 63.3954C218.869 62.6999 219.893 62.5133 221.941 62.1402L222.851 61.9745C229.556 60.7531 232.909 60.1424 234.769 62.0769C236.629 64.0114 235.887 67.3374 234.403 73.9893L228.91 98.6205L241.896 82.4819C242.755 81.414 243.185 80.8801 243.779 80.5869C244.373 80.2936 245.058 80.2774 246.428 80.2449L247.133 80.2282C257.055 79.9931 262.016 79.8756 263.389 82.8644C264.763 85.8532 261.443 89.5409 254.802 96.9165L237.292 116.364L250.7 141.922C254.33 148.843 256.145 152.303 254.57 154.752C252.995 157.201 249.094 156.985 241.291 156.552L236.184 156.269C234.309 156.165 233.372 156.113 232.657 155.595C231.943 155.076 231.603 154.201 230.923 152.451L222.165 129.903L222.803 146.02C222.917 148.888 222.974 150.321 222.114 151.238C221.253 152.154 219.819 152.188 216.95 152.256L211.786 152.378C208.491 152.455 206.844 152.494 205.92 151.452C204.996 150.41 205.233 148.779 205.706 145.517Z" fill="#FF5021"/>
<path d="M378.453 149.112C377.006 147.508 375.66 146.365 373.685 145.182C372.634 144.553 371.297 145.114 371.191 146.334C371.042 148.054 371.287 150.122 372.68 151.473C374.171 152.919 376.337 152.507 378.012 151.746C379.046 151.276 379.213 149.955 378.453 149.112Z" fill="#FF5021"/>
<path d="M373.997 115.672C374.59 110.78 379.448 112.71 382.346 115.209C383.183 115.932 383.025 117.204 382.03 117.687C378.518 119.392 373.513 119.662 373.997 115.672Z" fill="#FF5021"/>
<ellipse cx="381.242" cy="96.031" rx="3.68004" ry="2.22658" transform="rotate(-60.2844 381.242 96.031)" fill="#FF5021"/>
</g>
<defs>
<filter id="filter0_d_847_20721" x="2.37158" y="2.17725" width="385.529" height="162.645" filterUnits="userSpaceOnUse" color-interpolation-filters="sRGB">
<feFlood flood-opacity="0" result="BackgroundImageFix"/>
<feColorMatrix in="SourceAlpha" type="matrix" values="0 0 0 0 0 0 0 0 0 0 0 0 0 0 0 0 0 0 127 0" result="hardAlpha"/>
<feOffset dy="4"/>
<feGaussianBlur stdDeviation="2"/>
<feComposite in2="hardAlpha" operator="out"/>
<feColorMatrix type="matrix" values="0 0 0 0 0 0 0 0 0 0 0 0 0 0 0 0 0 0 0.25 0"/>
<feBlend mode="normal" in2="BackgroundImageFix" result="effect1_dropShadow_847_20721"/>
<feBlend mode="normal" in="SourceGraphic" in2="effect1_dropShadow_847_20721" result="shape"/>
</filter>
</defs>
</svg>
